<mxfile host="app.diagrams.net" agent="Mozilla/5.0 (Windows NT 10.0; Win64; x64) AppleWebKit/537.36 (KHTML, like Gecko) Chrome/134.0.0.0 Safari/537.36" version="26.1.1">
  <diagram name="Page-1" id="WvsLhv8DWYX-EEDasz4z">
    <mxGraphModel dx="1976" dy="504" grid="1" gridSize="10" guides="1" tooltips="1" connect="1" arrows="1" fold="1" page="1" pageScale="1" pageWidth="827" pageHeight="1169" math="0" shadow="0">
      <root>
        <mxCell id="0" />
        <mxCell id="1" parent="0" />
        <mxCell id="HT50-Eg58FO8tAIzym4i-1" value="" style="whiteSpace=wrap;html=1;aspect=fixed;" parent="1" vertex="1">
          <mxGeometry x="220" y="80" width="2220" height="2220" as="geometry" />
        </mxCell>
        <mxCell id="HT50-Eg58FO8tAIzym4i-2" value="&lt;h1 style=&quot;box-sizing: border-box; border: 0px solid; --tw-border-spacing-x: 0; --tw-border-spacing-y: 0; --tw-translate-x: 0; --tw-translate-y: 0; --tw-rotate: 0; --tw-skew-x: 0; --tw-skew-y: 0; --tw-scale-x: 1; --tw-scale-y: 1; --tw-pan-x: ; --tw-pan-y: ; --tw-pinch-zoom: ; --tw-scroll-snap-strictness: proximity; --tw-gradient-from-position: ; --tw-gradient-via-position: ; --tw-gradient-to-position: ; --tw-ordinal: ; --tw-slashed-zero: ; --tw-numeric-figure: ; --tw-numeric-spacing: ; --tw-numeric-fraction: ; --tw-ring-inset: ; --tw-ring-offset-width: 0px; --tw-ring-offset-color: #fff; --tw-ring-color: rgba(59,130,246,.5); --tw-ring-offset-shadow: 0 0 #0000; --tw-ring-shadow: 0 0 #0000; --tw-shadow: 0 0 #0000; --tw-shadow-colored: 0 0 #0000; --tw-blur: ; --tw-brightness: ; --tw-contrast: ; --tw-grayscale: ; --tw-hue-rotate: ; --tw-invert: ; --tw-saturate: ; --tw-sepia: ; --tw-drop-shadow: ; --tw-backdrop-blur: ; --tw-backdrop-brightness: ; --tw-backdrop-contrast: ; --tw-backdrop-grayscale: ; --tw-backdrop-hue-rotate: ; --tw-backdrop-invert: ; --tw-backdrop-opacity: ; --tw-backdrop-saturate: ; --tw-backdrop-sepia: ; --tw-contain-size: ; --tw-contain-layout: ; --tw-contain-paint: ; --tw-contain-style: ; margin: 0px; font-family: &amp;quot;Nunito Sans&amp;quot;, sans-serif; line-height: 2rem; color: var(--text-color,#000000); text-align: start; background-color: rgb(255, 255, 255);&quot; class=&quot;sc-6a4c5dd9-0 dXTcni&quot;&gt;&lt;font style=&quot;font-size: 48px;&quot;&gt;TalentPool&lt;/font&gt;&lt;/h1&gt;" style="text;html=1;align=center;verticalAlign=middle;whiteSpace=wrap;rounded=0;" parent="1" vertex="1">
          <mxGeometry x="1300" y="130" width="60" height="30" as="geometry" />
        </mxCell>
        <mxCell id="HT50-Eg58FO8tAIzym4i-3" value="&lt;b&gt;Candidat&lt;/b&gt;" style="shape=umlActor;verticalLabelPosition=bottom;verticalAlign=top;html=1;outlineConnect=0;" parent="1" vertex="1">
          <mxGeometry x="-120" y="500" width="120" height="120" as="geometry" />
        </mxCell>
        <mxCell id="HT50-Eg58FO8tAIzym4i-6" value="" style="group" parent="1" vertex="1" connectable="0">
          <mxGeometry x="390" y="280" width="160" height="110" as="geometry" />
        </mxCell>
        <mxCell id="HT50-Eg58FO8tAIzym4i-4" value="" style="ellipse;whiteSpace=wrap;html=1;" parent="HT50-Eg58FO8tAIzym4i-6" vertex="1">
          <mxGeometry width="160" height="110" as="geometry" />
        </mxCell>
        <mxCell id="HT50-Eg58FO8tAIzym4i-5" value="&lt;font style=&quot;font-size: 18px;&quot;&gt;Consulter la liste des annonces&lt;/font&gt;" style="text;html=1;align=center;verticalAlign=middle;whiteSpace=wrap;rounded=0;" parent="HT50-Eg58FO8tAIzym4i-6" vertex="1">
          <mxGeometry x="5" y="40" width="150" height="30" as="geometry" />
        </mxCell>
        <mxCell id="HT50-Eg58FO8tAIzym4i-7" value="" style="group" parent="1" vertex="1" connectable="0">
          <mxGeometry x="390" y="420" width="160" height="110" as="geometry" />
        </mxCell>
        <mxCell id="HT50-Eg58FO8tAIzym4i-8" value="" style="ellipse;whiteSpace=wrap;html=1;" parent="HT50-Eg58FO8tAIzym4i-7" vertex="1">
          <mxGeometry width="160" height="110" as="geometry" />
        </mxCell>
        <mxCell id="HT50-Eg58FO8tAIzym4i-9" value="&lt;font style=&quot;font-size: 18px;&quot;&gt;Voir les détails d’une annonce&lt;/font&gt;" style="text;html=1;align=center;verticalAlign=middle;whiteSpace=wrap;rounded=0;" parent="HT50-Eg58FO8tAIzym4i-7" vertex="1">
          <mxGeometry x="5" y="40" width="150" height="30" as="geometry" />
        </mxCell>
        <mxCell id="HT50-Eg58FO8tAIzym4i-10" value="" style="group" parent="1" vertex="1" connectable="0">
          <mxGeometry x="390" y="550" width="160" height="110" as="geometry" />
        </mxCell>
        <mxCell id="HT50-Eg58FO8tAIzym4i-11" value="" style="ellipse;whiteSpace=wrap;html=1;" parent="HT50-Eg58FO8tAIzym4i-10" vertex="1">
          <mxGeometry width="160" height="110" as="geometry" />
        </mxCell>
        <mxCell id="HT50-Eg58FO8tAIzym4i-12" value="&lt;font style=&quot;font-size: 18px;&quot;&gt;Postuler à une annonce&lt;/font&gt;" style="text;html=1;align=center;verticalAlign=middle;whiteSpace=wrap;rounded=0;" parent="HT50-Eg58FO8tAIzym4i-10" vertex="1">
          <mxGeometry x="5" y="40" width="155" height="30" as="geometry" />
        </mxCell>
        <mxCell id="HT50-Eg58FO8tAIzym4i-14" value="" style="group" parent="1" vertex="1" connectable="0">
          <mxGeometry x="400" y="690" width="160" height="110" as="geometry" />
        </mxCell>
        <mxCell id="HT50-Eg58FO8tAIzym4i-15" value="" style="ellipse;whiteSpace=wrap;html=1;" parent="HT50-Eg58FO8tAIzym4i-14" vertex="1">
          <mxGeometry width="160" height="110" as="geometry" />
        </mxCell>
        <mxCell id="HT50-Eg58FO8tAIzym4i-16" value="&lt;font style=&quot;font-size: 18px;&quot;&gt;Retirer une candidature&lt;/font&gt;" style="text;html=1;align=center;verticalAlign=middle;whiteSpace=wrap;rounded=0;" parent="HT50-Eg58FO8tAIzym4i-14" vertex="1">
          <mxGeometry x="5" y="40" width="155" height="30" as="geometry" />
        </mxCell>
        <mxCell id="HT50-Eg58FO8tAIzym4i-18" value="" style="group" parent="1" vertex="1" connectable="0">
          <mxGeometry x="400" y="820" width="200" height="110" as="geometry" />
        </mxCell>
        <mxCell id="HT50-Eg58FO8tAIzym4i-19" value="" style="ellipse;whiteSpace=wrap;html=1;" parent="HT50-Eg58FO8tAIzym4i-18" vertex="1">
          <mxGeometry width="160" height="110" as="geometry" />
        </mxCell>
        <mxCell id="HT50-Eg58FO8tAIzym4i-20" value="&lt;font style=&quot;font-size: 18px;&quot;&gt;inscrption&lt;/font&gt;" style="text;html=1;align=center;verticalAlign=middle;whiteSpace=wrap;rounded=0;" parent="HT50-Eg58FO8tAIzym4i-18" vertex="1">
          <mxGeometry x="-5" y="42" width="177.5" height="30" as="geometry" />
        </mxCell>
        <mxCell id="HT50-Eg58FO8tAIzym4i-21" value="&lt;b&gt;Administrateur&lt;/b&gt;" style="shape=umlActor;verticalLabelPosition=bottom;verticalAlign=top;html=1;outlineConnect=0;" parent="1" vertex="1">
          <mxGeometry x="-120" y="1930" width="120" height="120" as="geometry" />
        </mxCell>
        <mxCell id="HT50-Eg58FO8tAIzym4i-22" value="" style="group" parent="1" vertex="1" connectable="0">
          <mxGeometry x="421" y="1050" width="200" height="110" as="geometry" />
        </mxCell>
        <mxCell id="HT50-Eg58FO8tAIzym4i-23" value="" style="ellipse;whiteSpace=wrap;html=1;" parent="HT50-Eg58FO8tAIzym4i-22" vertex="1">
          <mxGeometry width="160" height="110" as="geometry" />
        </mxCell>
        <mxCell id="HT50-Eg58FO8tAIzym4i-24" value="&lt;font style=&quot;font-size: 18px;&quot;&gt;Géstion des&amp;nbsp;&amp;nbsp;annonces&lt;/font&gt;" style="text;html=1;align=center;verticalAlign=middle;whiteSpace=wrap;rounded=0;" parent="HT50-Eg58FO8tAIzym4i-22" vertex="1">
          <mxGeometry x="12.5" y="40" width="135" height="30" as="geometry" />
        </mxCell>
        <mxCell id="HT50-Eg58FO8tAIzym4i-25" value="" style="group" parent="1" vertex="1" connectable="0">
          <mxGeometry x="960" y="940" width="200" height="110" as="geometry" />
        </mxCell>
        <mxCell id="HT50-Eg58FO8tAIzym4i-26" value="" style="ellipse;whiteSpace=wrap;html=1;" parent="HT50-Eg58FO8tAIzym4i-25" vertex="1">
          <mxGeometry width="160" height="110" as="geometry" />
        </mxCell>
        <mxCell id="HT50-Eg58FO8tAIzym4i-27" value="&lt;span style=&quot;font-size: 18px;&quot;&gt;Ajouter&lt;/span&gt;" style="text;html=1;align=center;verticalAlign=middle;whiteSpace=wrap;rounded=0;" parent="HT50-Eg58FO8tAIzym4i-25" vertex="1">
          <mxGeometry x="12.5" y="40" width="137.5" height="30" as="geometry" />
        </mxCell>
        <mxCell id="HT50-Eg58FO8tAIzym4i-28" value="" style="group" parent="1" vertex="1" connectable="0">
          <mxGeometry x="424" y="1310" width="200" height="110" as="geometry" />
        </mxCell>
        <mxCell id="HT50-Eg58FO8tAIzym4i-29" value="" style="ellipse;whiteSpace=wrap;html=1;" parent="HT50-Eg58FO8tAIzym4i-28" vertex="1">
          <mxGeometry y="14" width="160" height="110" as="geometry" />
        </mxCell>
        <mxCell id="HT50-Eg58FO8tAIzym4i-30" value="&lt;font style=&quot;font-size: 18px;&quot;&gt;Filtrer les candidatures&lt;/font&gt;" style="text;html=1;align=center;verticalAlign=middle;whiteSpace=wrap;rounded=0;" parent="HT50-Eg58FO8tAIzym4i-28" vertex="1">
          <mxGeometry x="12.5" y="53" width="137.5" height="30" as="geometry" />
        </mxCell>
        <mxCell id="HT50-Eg58FO8tAIzym4i-31" value="" style="group" parent="1" vertex="1" connectable="0">
          <mxGeometry x="420" y="1860" width="200" height="110" as="geometry" />
        </mxCell>
        <mxCell id="HT50-Eg58FO8tAIzym4i-32" value="" style="ellipse;whiteSpace=wrap;html=1;" parent="HT50-Eg58FO8tAIzym4i-31" vertex="1">
          <mxGeometry width="160" height="110" as="geometry" />
        </mxCell>
        <mxCell id="HT50-Eg58FO8tAIzym4i-33" value="&lt;font style=&quot;font-size: 18px;&quot;&gt;Gérer les utilisateurs&lt;/font&gt;" style="text;html=1;align=center;verticalAlign=middle;whiteSpace=wrap;rounded=0;" parent="HT50-Eg58FO8tAIzym4i-31" vertex="1">
          <mxGeometry x="12.5" y="40" width="137.5" height="30" as="geometry" />
        </mxCell>
        <mxCell id="HT50-Eg58FO8tAIzym4i-40" value="" style="group" parent="1" vertex="1" connectable="0">
          <mxGeometry x="430" y="1610" width="200" height="110" as="geometry" />
        </mxCell>
        <mxCell id="HT50-Eg58FO8tAIzym4i-41" value="" style="ellipse;whiteSpace=wrap;html=1;" parent="HT50-Eg58FO8tAIzym4i-40" vertex="1">
          <mxGeometry width="160" height="110" as="geometry" />
        </mxCell>
        <mxCell id="HT50-Eg58FO8tAIzym4i-42" value="&lt;font style=&quot;font-size: 18px;&quot;&gt;Obtenir des statistiques sur ses annonces et candidatures&lt;/font&gt;" style="text;html=1;align=center;verticalAlign=middle;whiteSpace=wrap;rounded=0;" parent="HT50-Eg58FO8tAIzym4i-40" vertex="1">
          <mxGeometry x="12.5" y="40" width="137.5" height="30" as="geometry" />
        </mxCell>
        <mxCell id="HT50-Eg58FO8tAIzym4i-43" value="&lt;strong data-end=&quot;457&quot; data-start=&quot;444&quot;&gt;Recruteur&lt;/strong&gt;" style="shape=umlActor;verticalLabelPosition=bottom;verticalAlign=top;html=1;outlineConnect=0;" parent="1" vertex="1">
          <mxGeometry x="-120" y="1305" width="120" height="120" as="geometry" />
        </mxCell>
        <mxCell id="HT50-Eg58FO8tAIzym4i-54" value="" style="group" parent="1" vertex="1" connectable="0">
          <mxGeometry x="430" y="1460" width="200" height="110" as="geometry" />
        </mxCell>
        <mxCell id="HT50-Eg58FO8tAIzym4i-55" value="" style="ellipse;whiteSpace=wrap;html=1;" parent="HT50-Eg58FO8tAIzym4i-54" vertex="1">
          <mxGeometry width="160" height="110" as="geometry" />
        </mxCell>
        <mxCell id="HT50-Eg58FO8tAIzym4i-56" value="&lt;font style=&quot;font-size: 18px;&quot;&gt;Mettre à jour le statut des candidatures&lt;/font&gt;" style="text;html=1;align=center;verticalAlign=middle;whiteSpace=wrap;rounded=0;" parent="HT50-Eg58FO8tAIzym4i-54" vertex="1">
          <mxGeometry x="12.5" y="40" width="137.5" height="30" as="geometry" />
        </mxCell>
        <mxCell id="HT50-Eg58FO8tAIzym4i-57" value="" style="group" parent="1" vertex="1" connectable="0">
          <mxGeometry x="420" y="2010" width="200" height="110" as="geometry" />
        </mxCell>
        <mxCell id="HT50-Eg58FO8tAIzym4i-58" value="" style="ellipse;whiteSpace=wrap;html=1;" parent="HT50-Eg58FO8tAIzym4i-57" vertex="1">
          <mxGeometry width="160" height="110" as="geometry" />
        </mxCell>
        <mxCell id="HT50-Eg58FO8tAIzym4i-59" value="&lt;font style=&quot;font-size: 18px;&quot;&gt;Accéder aux statistiques globales&lt;/font&gt;" style="text;html=1;align=center;verticalAlign=middle;whiteSpace=wrap;rounded=0;" parent="HT50-Eg58FO8tAIzym4i-57" vertex="1">
          <mxGeometry x="12.5" y="40" width="137.5" height="30" as="geometry" />
        </mxCell>
        <mxCell id="HT50-Eg58FO8tAIzym4i-60" value="" style="group" parent="1" vertex="1" connectable="0">
          <mxGeometry x="1041" y="1750" width="200" height="110" as="geometry" />
        </mxCell>
        <mxCell id="HT50-Eg58FO8tAIzym4i-61" value="" style="ellipse;whiteSpace=wrap;html=1;" parent="HT50-Eg58FO8tAIzym4i-60" vertex="1">
          <mxGeometry width="160" height="110" as="geometry" />
        </mxCell>
        <mxCell id="HT50-Eg58FO8tAIzym4i-62" value="&lt;font style=&quot;font-size: 18px;&quot;&gt;valider&lt;/font&gt;" style="text;html=1;align=center;verticalAlign=middle;whiteSpace=wrap;rounded=0;" parent="HT50-Eg58FO8tAIzym4i-60" vertex="1">
          <mxGeometry x="12.5" y="40" width="137.5" height="30" as="geometry" />
        </mxCell>
        <mxCell id="HT50-Eg58FO8tAIzym4i-63" value="" style="group" parent="1" vertex="1" connectable="0">
          <mxGeometry x="1050" y="1900" width="200" height="110" as="geometry" />
        </mxCell>
        <mxCell id="HT50-Eg58FO8tAIzym4i-64" value="" style="ellipse;whiteSpace=wrap;html=1;" parent="HT50-Eg58FO8tAIzym4i-63" vertex="1">
          <mxGeometry width="160" height="110" as="geometry" />
        </mxCell>
        <mxCell id="HT50-Eg58FO8tAIzym4i-65" value="&lt;span style=&quot;font-size: 18px;&quot;&gt;refuser&lt;/span&gt;" style="text;html=1;align=center;verticalAlign=middle;whiteSpace=wrap;rounded=0;" parent="HT50-Eg58FO8tAIzym4i-63" vertex="1">
          <mxGeometry x="12.5" y="40" width="137.5" height="30" as="geometry" />
        </mxCell>
        <mxCell id="HT50-Eg58FO8tAIzym4i-87" value="" style="group" parent="1" vertex="1" connectable="0">
          <mxGeometry x="424" y="1190" width="200" height="110" as="geometry" />
        </mxCell>
        <mxCell id="HT50-Eg58FO8tAIzym4i-88" value="" style="ellipse;whiteSpace=wrap;html=1;" parent="HT50-Eg58FO8tAIzym4i-87" vertex="1">
          <mxGeometry width="160" height="110" as="geometry" />
        </mxCell>
        <mxCell id="HT50-Eg58FO8tAIzym4i-89" value="&lt;font style=&quot;font-size: 18px;&quot;&gt;Consulter les candidatures reçues pour ses annonces&lt;/font&gt;" style="text;html=1;align=center;verticalAlign=middle;whiteSpace=wrap;rounded=0;" parent="HT50-Eg58FO8tAIzym4i-87" vertex="1">
          <mxGeometry x="12.5" y="40" width="137.5" height="30" as="geometry" />
        </mxCell>
        <mxCell id="HT50-Eg58FO8tAIzym4i-90" value="" style="group" parent="1" vertex="1" connectable="0">
          <mxGeometry x="1110" y="1100" width="200" height="110" as="geometry" />
        </mxCell>
        <mxCell id="HT50-Eg58FO8tAIzym4i-91" value="" style="ellipse;whiteSpace=wrap;html=1;" parent="HT50-Eg58FO8tAIzym4i-90" vertex="1">
          <mxGeometry width="160" height="110" as="geometry" />
        </mxCell>
        <mxCell id="HT50-Eg58FO8tAIzym4i-92" value="&lt;span style=&quot;font-size: 18px;&quot;&gt;Modifier&lt;/span&gt;" style="text;html=1;align=center;verticalAlign=middle;whiteSpace=wrap;rounded=0;" parent="HT50-Eg58FO8tAIzym4i-90" vertex="1">
          <mxGeometry x="12.5" y="40" width="137.5" height="30" as="geometry" />
        </mxCell>
        <mxCell id="HT50-Eg58FO8tAIzym4i-93" value="" style="group" parent="1" vertex="1" connectable="0">
          <mxGeometry x="970" y="1260" width="200" height="110" as="geometry" />
        </mxCell>
        <mxCell id="HT50-Eg58FO8tAIzym4i-94" value="" style="ellipse;whiteSpace=wrap;html=1;" parent="HT50-Eg58FO8tAIzym4i-93" vertex="1">
          <mxGeometry width="160" height="110" as="geometry" />
        </mxCell>
        <mxCell id="HT50-Eg58FO8tAIzym4i-95" value="&lt;span style=&quot;font-size: 18px;&quot;&gt;Supprimer&lt;/span&gt;" style="text;html=1;align=center;verticalAlign=middle;whiteSpace=wrap;rounded=0;" parent="HT50-Eg58FO8tAIzym4i-93" vertex="1">
          <mxGeometry x="12.5" y="40" width="137.5" height="30" as="geometry" />
        </mxCell>
        <mxCell id="HT50-Eg58FO8tAIzym4i-96" value="" style="group" parent="1" vertex="1" connectable="0">
          <mxGeometry x="1700" y="990" width="370" height="190" as="geometry" />
        </mxCell>
        <mxCell id="HT50-Eg58FO8tAIzym4i-100" value="" style="group" parent="HT50-Eg58FO8tAIzym4i-96" vertex="1" connectable="0">
          <mxGeometry x="170" y="40" width="296" height="190" as="geometry" />
        </mxCell>
        <mxCell id="HT50-Eg58FO8tAIzym4i-97" value="" style="ellipse;whiteSpace=wrap;html=1;container=1;" parent="HT50-Eg58FO8tAIzym4i-100" vertex="1">
          <mxGeometry width="296" height="190" as="geometry">
            <mxRectangle width="50" height="40" as="alternateBounds" />
          </mxGeometry>
        </mxCell>
        <mxCell id="HT50-Eg58FO8tAIzym4i-98" value="&lt;span style=&quot;font-size: 36px;&quot;&gt;Authentification&lt;/span&gt;" style="text;html=1;align=center;verticalAlign=middle;whiteSpace=wrap;rounded=0;" parent="HT50-Eg58FO8tAIzym4i-100" vertex="1">
          <mxGeometry x="23.13" y="69.09" width="256.88" height="51.82" as="geometry" />
        </mxCell>
        <mxCell id="HT50-Eg58FO8tAIzym4i-101" value="" style="endArrow=none;html=1;rounded=0;exitX=0.5;exitY=0.5;exitDx=0;exitDy=0;exitPerimeter=0;entryX=0;entryY=1;entryDx=0;entryDy=0;" parent="1" source="HT50-Eg58FO8tAIzym4i-3" target="HT50-Eg58FO8tAIzym4i-5" edge="1">
          <mxGeometry width="50" height="50" relative="1" as="geometry">
            <mxPoint x="1580" y="950" as="sourcePoint" />
            <mxPoint x="1630" y="900" as="targetPoint" />
          </mxGeometry>
        </mxCell>
        <mxCell id="HT50-Eg58FO8tAIzym4i-102" value="" style="endArrow=none;html=1;rounded=0;exitX=0.5;exitY=0.5;exitDx=0;exitDy=0;exitPerimeter=0;entryX=0;entryY=0.5;entryDx=0;entryDy=0;" parent="1" source="HT50-Eg58FO8tAIzym4i-3" target="HT50-Eg58FO8tAIzym4i-9" edge="1">
          <mxGeometry width="50" height="50" relative="1" as="geometry">
            <mxPoint x="-50" y="570" as="sourcePoint" />
            <mxPoint x="405" y="360" as="targetPoint" />
          </mxGeometry>
        </mxCell>
        <mxCell id="HT50-Eg58FO8tAIzym4i-103" value="" style="endArrow=none;html=1;rounded=0;exitX=0.5;exitY=0.5;exitDx=0;exitDy=0;exitPerimeter=0;entryX=0;entryY=0.25;entryDx=0;entryDy=0;" parent="1" source="HT50-Eg58FO8tAIzym4i-3" target="HT50-Eg58FO8tAIzym4i-12" edge="1">
          <mxGeometry width="50" height="50" relative="1" as="geometry">
            <mxPoint x="-50" y="570" as="sourcePoint" />
            <mxPoint x="405" y="485" as="targetPoint" />
          </mxGeometry>
        </mxCell>
        <mxCell id="HT50-Eg58FO8tAIzym4i-104" value="" style="endArrow=none;html=1;rounded=0;exitX=0.5;exitY=0.5;exitDx=0;exitDy=0;exitPerimeter=0;entryX=0;entryY=0;entryDx=0;entryDy=0;" parent="1" source="HT50-Eg58FO8tAIzym4i-3" target="HT50-Eg58FO8tAIzym4i-16" edge="1">
          <mxGeometry width="50" height="50" relative="1" as="geometry">
            <mxPoint x="-50" y="570" as="sourcePoint" />
            <mxPoint x="405" y="608" as="targetPoint" />
          </mxGeometry>
        </mxCell>
        <mxCell id="HT50-Eg58FO8tAIzym4i-105" value="" style="endArrow=none;html=1;rounded=0;exitX=0.5;exitY=0.5;exitDx=0;exitDy=0;exitPerimeter=0;entryX=0;entryY=0;entryDx=0;entryDy=0;" parent="1" source="HT50-Eg58FO8tAIzym4i-3" target="HT50-Eg58FO8tAIzym4i-20" edge="1">
          <mxGeometry width="50" height="50" relative="1" as="geometry">
            <mxPoint x="-50" y="570" as="sourcePoint" />
            <mxPoint x="415" y="740" as="targetPoint" />
          </mxGeometry>
        </mxCell>
        <mxCell id="HT50-Eg58FO8tAIzym4i-107" value="" style="endArrow=none;html=1;rounded=0;exitX=0.5;exitY=0.5;exitDx=0;exitDy=0;exitPerimeter=0;entryX=0;entryY=1;entryDx=0;entryDy=0;" parent="1" source="HT50-Eg58FO8tAIzym4i-43" target="HT50-Eg58FO8tAIzym4i-19" edge="1">
          <mxGeometry width="50" height="50" relative="1" as="geometry">
            <mxPoint x="-50" y="570" as="sourcePoint" />
            <mxPoint x="405" y="872" as="targetPoint" />
          </mxGeometry>
        </mxCell>
        <mxCell id="HT50-Eg58FO8tAIzym4i-108" value="" style="endArrow=none;html=1;rounded=0;exitX=0.5;exitY=0.5;exitDx=0;exitDy=0;exitPerimeter=0;entryX=0;entryY=0.5;entryDx=0;entryDy=0;" parent="1" source="HT50-Eg58FO8tAIzym4i-43" target="HT50-Eg58FO8tAIzym4i-23" edge="1">
          <mxGeometry width="50" height="50" relative="1" as="geometry">
            <mxPoint x="-50" y="1375" as="sourcePoint" />
            <mxPoint x="433" y="924" as="targetPoint" />
          </mxGeometry>
        </mxCell>
        <mxCell id="HT50-Eg58FO8tAIzym4i-109" value="" style="endArrow=none;html=1;rounded=0;exitX=0.5;exitY=0.5;exitDx=0;exitDy=0;exitPerimeter=0;entryX=0;entryY=0.5;entryDx=0;entryDy=0;" parent="1" source="HT50-Eg58FO8tAIzym4i-43" target="HT50-Eg58FO8tAIzym4i-88" edge="1">
          <mxGeometry width="50" height="50" relative="1" as="geometry">
            <mxPoint x="-50" y="1375" as="sourcePoint" />
            <mxPoint x="420" y="1115" as="targetPoint" />
          </mxGeometry>
        </mxCell>
        <mxCell id="HT50-Eg58FO8tAIzym4i-110" value="" style="endArrow=none;html=1;rounded=0;exitX=0.5;exitY=0.5;exitDx=0;exitDy=0;exitPerimeter=0;entryX=0;entryY=0.5;entryDx=0;entryDy=0;" parent="1" source="HT50-Eg58FO8tAIzym4i-43" target="HT50-Eg58FO8tAIzym4i-29" edge="1">
          <mxGeometry width="50" height="50" relative="1" as="geometry">
            <mxPoint x="-50" y="1375" as="sourcePoint" />
            <mxPoint x="434" y="1255" as="targetPoint" />
          </mxGeometry>
        </mxCell>
        <mxCell id="HT50-Eg58FO8tAIzym4i-111" value="" style="endArrow=none;html=1;rounded=0;exitX=0.5;exitY=0.5;exitDx=0;exitDy=0;exitPerimeter=0;entryX=0;entryY=0.5;entryDx=0;entryDy=0;" parent="1" source="HT50-Eg58FO8tAIzym4i-43" target="HT50-Eg58FO8tAIzym4i-55" edge="1">
          <mxGeometry width="50" height="50" relative="1" as="geometry">
            <mxPoint x="-50" y="1375" as="sourcePoint" />
            <mxPoint x="434" y="1389" as="targetPoint" />
          </mxGeometry>
        </mxCell>
        <mxCell id="HT50-Eg58FO8tAIzym4i-112" value="" style="endArrow=none;html=1;rounded=0;exitX=0.5;exitY=0.5;exitDx=0;exitDy=0;exitPerimeter=0;entryX=0.035;entryY=0.321;entryDx=0;entryDy=0;entryPerimeter=0;" parent="1" source="HT50-Eg58FO8tAIzym4i-43" target="HT50-Eg58FO8tAIzym4i-41" edge="1">
          <mxGeometry width="50" height="50" relative="1" as="geometry">
            <mxPoint x="-50" y="1375" as="sourcePoint" />
            <mxPoint x="440" y="1525" as="targetPoint" />
          </mxGeometry>
        </mxCell>
        <mxCell id="HT50-Eg58FO8tAIzym4i-113" value="" style="endArrow=none;html=1;rounded=0;exitX=0.5;exitY=0.5;exitDx=0;exitDy=0;exitPerimeter=0;entryX=0;entryY=0.5;entryDx=0;entryDy=0;" parent="1" source="HT50-Eg58FO8tAIzym4i-21" target="HT50-Eg58FO8tAIzym4i-32" edge="1">
          <mxGeometry width="50" height="50" relative="1" as="geometry">
            <mxPoint x="-50" y="1375" as="sourcePoint" />
            <mxPoint x="446" y="1655" as="targetPoint" />
          </mxGeometry>
        </mxCell>
        <mxCell id="HT50-Eg58FO8tAIzym4i-114" value="" style="endArrow=none;html=1;rounded=0;exitX=0.5;exitY=0.5;exitDx=0;exitDy=0;exitPerimeter=0;entryX=0;entryY=0.5;entryDx=0;entryDy=0;" parent="1" source="HT50-Eg58FO8tAIzym4i-21" target="HT50-Eg58FO8tAIzym4i-58" edge="1">
          <mxGeometry width="50" height="50" relative="1" as="geometry">
            <mxPoint x="-50" y="2000" as="sourcePoint" />
            <mxPoint x="430" y="1925" as="targetPoint" />
          </mxGeometry>
        </mxCell>
        <mxCell id="HT50-Eg58FO8tAIzym4i-115" value="" style="endArrow=none;dashed=1;html=1;rounded=0;exitX=1;exitY=0;exitDx=0;exitDy=0;entryX=0.056;entryY=0.376;entryDx=0;entryDy=0;entryPerimeter=0;" parent="1" source="HT50-Eg58FO8tAIzym4i-23" target="HT50-Eg58FO8tAIzym4i-26" edge="1">
          <mxGeometry width="50" height="50" relative="1" as="geometry">
            <mxPoint x="760" y="1300" as="sourcePoint" />
            <mxPoint x="810" y="1250" as="targetPoint" />
          </mxGeometry>
        </mxCell>
        <mxCell id="HT50-Eg58FO8tAIzym4i-116" value="" style="endArrow=none;dashed=1;html=1;rounded=0;exitX=1;exitY=0.5;exitDx=0;exitDy=0;entryX=0;entryY=0.5;entryDx=0;entryDy=0;" parent="1" source="HT50-Eg58FO8tAIzym4i-23" target="HT50-Eg58FO8tAIzym4i-91" edge="1">
          <mxGeometry width="50" height="50" relative="1" as="geometry">
            <mxPoint x="557" y="1076" as="sourcePoint" />
            <mxPoint x="979" y="991" as="targetPoint" />
          </mxGeometry>
        </mxCell>
        <mxCell id="HT50-Eg58FO8tAIzym4i-117" value="" style="endArrow=none;dashed=1;html=1;rounded=0;exitX=1;exitY=1;exitDx=0;exitDy=0;entryX=0;entryY=0;entryDx=0;entryDy=0;" parent="1" source="HT50-Eg58FO8tAIzym4i-23" target="HT50-Eg58FO8tAIzym4i-94" edge="1">
          <mxGeometry width="50" height="50" relative="1" as="geometry">
            <mxPoint x="580" y="1115" as="sourcePoint" />
            <mxPoint x="1120" y="1165" as="targetPoint" />
          </mxGeometry>
        </mxCell>
        <mxCell id="HT50-Eg58FO8tAIzym4i-118" value="" style="endArrow=none;dashed=1;html=1;rounded=0;exitX=1;exitY=0;exitDx=0;exitDy=0;entryX=0;entryY=0.5;entryDx=0;entryDy=0;" parent="1" source="HT50-Eg58FO8tAIzym4i-33" target="HT50-Eg58FO8tAIzym4i-61" edge="1">
          <mxGeometry width="50" height="50" relative="1" as="geometry">
            <mxPoint x="557" y="1076" as="sourcePoint" />
            <mxPoint x="979" y="991" as="targetPoint" />
          </mxGeometry>
        </mxCell>
        <mxCell id="HT50-Eg58FO8tAIzym4i-119" value="" style="endArrow=none;dashed=1;html=1;rounded=0;exitX=1;exitY=1;exitDx=0;exitDy=0;entryX=0;entryY=0.5;entryDx=0;entryDy=0;" parent="1" source="HT50-Eg58FO8tAIzym4i-32" target="HT50-Eg58FO8tAIzym4i-64" edge="1">
          <mxGeometry width="50" height="50" relative="1" as="geometry">
            <mxPoint x="580" y="1910" as="sourcePoint" />
            <mxPoint x="1051" y="1815" as="targetPoint" />
          </mxGeometry>
        </mxCell>
        <mxCell id="HT50-Eg58FO8tAIzym4i-120" value="" style="endArrow=none;dashed=1;html=1;rounded=0;exitX=1;exitY=0.5;exitDx=0;exitDy=0;edgeStyle=orthogonalEdgeStyle;entryX=1;entryY=0;entryDx=0;entryDy=0;" parent="1" source="HT50-Eg58FO8tAIzym4i-5" target="HT50-Eg58FO8tAIzym4i-97" edge="1">
          <mxGeometry width="50" height="50" relative="1" as="geometry">
            <mxPoint x="557" y="1076" as="sourcePoint" />
            <mxPoint x="979" y="991" as="targetPoint" />
          </mxGeometry>
        </mxCell>
        <mxCell id="HT50-Eg58FO8tAIzym4i-121" value="" style="endArrow=none;dashed=1;html=1;rounded=0;exitX=1;exitY=0.75;exitDx=0;exitDy=0;edgeStyle=orthogonalEdgeStyle;entryX=0.716;entryY=0.073;entryDx=0;entryDy=0;entryPerimeter=0;" parent="1" source="HT50-Eg58FO8tAIzym4i-9" target="HT50-Eg58FO8tAIzym4i-97" edge="1">
          <mxGeometry width="50" height="50" relative="1" as="geometry">
            <mxPoint x="555" y="345" as="sourcePoint" />
            <mxPoint x="2028" y="1040" as="targetPoint" />
            <Array as="points">
              <mxPoint x="2080" y="482" />
              <mxPoint x="2080" y="970" />
            </Array>
          </mxGeometry>
        </mxCell>
        <mxCell id="HT50-Eg58FO8tAIzym4i-123" value="" style="endArrow=none;dashed=1;html=1;rounded=0;exitX=1;exitY=1;exitDx=0;exitDy=0;edgeStyle=orthogonalEdgeStyle;entryX=0.574;entryY=0.043;entryDx=0;entryDy=0;entryPerimeter=0;" parent="1" source="HT50-Eg58FO8tAIzym4i-12" target="HT50-Eg58FO8tAIzym4i-97" edge="1">
          <mxGeometry width="50" height="50" relative="1" as="geometry">
            <mxPoint x="555" y="493" as="sourcePoint" />
            <mxPoint x="1960" y="1051" as="targetPoint" />
            <Array as="points">
              <mxPoint x="550" y="610" />
              <mxPoint x="2030" y="610" />
              <mxPoint x="2030" y="1038" />
            </Array>
          </mxGeometry>
        </mxCell>
        <mxCell id="HT50-Eg58FO8tAIzym4i-124" value="" style="endArrow=none;dashed=1;html=1;rounded=0;exitX=1;exitY=0.75;exitDx=0;exitDy=0;edgeStyle=orthogonalEdgeStyle;entryX=0.404;entryY=0.044;entryDx=0;entryDy=0;entryPerimeter=0;" parent="1" source="HT50-Eg58FO8tAIzym4i-16" target="HT50-Eg58FO8tAIzym4i-97" edge="1">
          <mxGeometry width="50" height="50" relative="1" as="geometry">
            <mxPoint x="560" y="630" as="sourcePoint" />
            <mxPoint x="2050" y="1048" as="targetPoint" />
            <Array as="points">
              <mxPoint x="1990" y="753" />
            </Array>
          </mxGeometry>
        </mxCell>
        <mxCell id="HT50-Eg58FO8tAIzym4i-125" value="" style="endArrow=none;dashed=1;html=1;rounded=0;exitX=1;exitY=0;exitDx=0;exitDy=0;edgeStyle=orthogonalEdgeStyle;entryX=0;entryY=0.5;entryDx=0;entryDy=0;" parent="1" source="HT50-Eg58FO8tAIzym4i-24" target="HT50-Eg58FO8tAIzym4i-97" edge="1">
          <mxGeometry width="50" height="50" relative="1" as="geometry">
            <mxPoint x="570" y="763" as="sourcePoint" />
            <mxPoint x="2000" y="1048" as="targetPoint" />
            <Array as="points">
              <mxPoint x="1870" y="1090" />
            </Array>
          </mxGeometry>
        </mxCell>
        <mxCell id="HT50-Eg58FO8tAIzym4i-127" value="" style="endArrow=none;dashed=1;html=1;rounded=0;exitX=1;exitY=0.75;exitDx=0;exitDy=0;edgeStyle=orthogonalEdgeStyle;entryX=0.247;entryY=0.921;entryDx=0;entryDy=0;entryPerimeter=0;" parent="1" source="HT50-Eg58FO8tAIzym4i-89" target="HT50-Eg58FO8tAIzym4i-97" edge="1">
          <mxGeometry width="50" height="50" relative="1" as="geometry">
            <mxPoint x="580" y="773" as="sourcePoint" />
            <mxPoint x="2010" y="1058" as="targetPoint" />
            <Array as="points">
              <mxPoint x="574" y="1245" />
              <mxPoint x="1943" y="1245" />
            </Array>
          </mxGeometry>
        </mxCell>
        <mxCell id="HT50-Eg58FO8tAIzym4i-128" value="" style="endArrow=none;dashed=1;html=1;rounded=0;exitX=1;exitY=0.5;exitDx=0;exitDy=0;edgeStyle=orthogonalEdgeStyle;entryX=0.626;entryY=0.986;entryDx=0;entryDy=0;entryPerimeter=0;" parent="1" source="HT50-Eg58FO8tAIzym4i-29" target="HT50-Eg58FO8tAIzym4i-97" edge="1">
          <mxGeometry width="50" height="50" relative="1" as="geometry">
            <mxPoint x="584" y="1263" as="sourcePoint" />
            <mxPoint x="1953" y="1215" as="targetPoint" />
            <Array as="points">
              <mxPoint x="584" y="1390" />
              <mxPoint x="2055" y="1390" />
            </Array>
          </mxGeometry>
        </mxCell>
        <mxCell id="HT50-Eg58FO8tAIzym4i-130" value="" style="endArrow=none;dashed=1;html=1;rounded=0;exitX=0.985;exitY=0.527;exitDx=0;exitDy=0;edgeStyle=orthogonalEdgeStyle;entryX=0.918;entryY=0.769;entryDx=0;entryDy=0;entryPerimeter=0;exitPerimeter=0;" parent="1" source="HT50-Eg58FO8tAIzym4i-55" target="HT50-Eg58FO8tAIzym4i-97" edge="1">
          <mxGeometry width="50" height="50" relative="1" as="geometry">
            <mxPoint x="594" y="1389" as="sourcePoint" />
            <mxPoint x="2065" y="1227" as="targetPoint" />
            <Array as="points">
              <mxPoint x="2142" y="1518" />
            </Array>
          </mxGeometry>
        </mxCell>
        <mxCell id="HT50-Eg58FO8tAIzym4i-131" value="" style="endArrow=none;dashed=1;html=1;rounded=0;exitX=1;exitY=0.75;exitDx=0;exitDy=0;edgeStyle=orthogonalEdgeStyle;entryX=1;entryY=0.5;entryDx=0;entryDy=0;" parent="1" source="HT50-Eg58FO8tAIzym4i-42" target="HT50-Eg58FO8tAIzym4i-97" edge="1">
          <mxGeometry width="50" height="50" relative="1" as="geometry">
            <mxPoint x="598" y="1528" as="sourcePoint" />
            <mxPoint x="2152" y="1186" as="targetPoint" />
            <Array as="points">
              <mxPoint x="2166" y="1673" />
            </Array>
          </mxGeometry>
        </mxCell>
        <mxCell id="HT50-Eg58FO8tAIzym4i-136" value="" style="endArrow=none;dashed=1;html=1;rounded=0;exitX=1;exitY=0.5;exitDx=0;exitDy=0;edgeStyle=orthogonalEdgeStyle;" parent="1" source="HT50-Eg58FO8tAIzym4i-32" edge="1">
          <mxGeometry width="50" height="50" relative="1" as="geometry">
            <mxPoint x="598" y="1528" as="sourcePoint" />
            <mxPoint x="2170" y="1120" as="targetPoint" />
            <Array as="points">
              <mxPoint x="580" y="1890" />
              <mxPoint x="2152" y="1890" />
            </Array>
          </mxGeometry>
        </mxCell>
        <mxCell id="HT50-Eg58FO8tAIzym4i-137" value="" style="endArrow=none;dashed=1;html=1;rounded=0;exitX=1;exitY=0.5;exitDx=0;exitDy=0;edgeStyle=orthogonalEdgeStyle;entryX=0.946;entryY=0.263;entryDx=0;entryDy=0;entryPerimeter=0;" parent="1" source="HT50-Eg58FO8tAIzym4i-58" target="HT50-Eg58FO8tAIzym4i-97" edge="1">
          <mxGeometry width="50" height="50" relative="1" as="geometry">
            <mxPoint x="590" y="1925" as="sourcePoint" />
            <mxPoint x="2180" y="1130" as="targetPoint" />
            <Array as="points">
              <mxPoint x="2280" y="2065" />
              <mxPoint x="2280" y="1080" />
            </Array>
          </mxGeometry>
        </mxCell>
        <mxCell id="HT50-Eg58FO8tAIzym4i-138" value="&amp;lt;&amp;lt;include&amp;gt;&amp;gt;" style="text;html=1;align=center;verticalAlign=middle;whiteSpace=wrap;rounded=0;" parent="1" vertex="1">
          <mxGeometry x="1111" y="300" width="60" height="30" as="geometry" />
        </mxCell>
        <mxCell id="HT50-Eg58FO8tAIzym4i-139" value="&amp;lt;&amp;lt;include&amp;gt;&amp;gt;" style="text;html=1;align=center;verticalAlign=middle;whiteSpace=wrap;rounded=0;" parent="1" vertex="1">
          <mxGeometry x="1140" y="454" width="60" height="30" as="geometry" />
        </mxCell>
        <mxCell id="HT50-Eg58FO8tAIzym4i-140" value="&amp;lt;&amp;lt;include&amp;gt;&amp;gt;" style="text;html=1;align=center;verticalAlign=middle;whiteSpace=wrap;rounded=0;" parent="1" vertex="1">
          <mxGeometry x="1180" y="585" width="60" height="30" as="geometry" />
        </mxCell>
        <mxCell id="HT50-Eg58FO8tAIzym4i-141" value="&amp;lt;&amp;lt;include&amp;gt;&amp;gt;" style="text;html=1;align=center;verticalAlign=middle;whiteSpace=wrap;rounded=0;" parent="1" vertex="1">
          <mxGeometry x="1200" y="723" width="60" height="30" as="geometry" />
        </mxCell>
        <mxCell id="HT50-Eg58FO8tAIzym4i-142" value="&amp;lt;&amp;lt;include&amp;gt;&amp;gt;" style="text;html=1;align=center;verticalAlign=middle;whiteSpace=wrap;rounded=0;" parent="1" vertex="1">
          <mxGeometry x="1480" y="1060" width="60" height="30" as="geometry" />
        </mxCell>
        <mxCell id="HT50-Eg58FO8tAIzym4i-143" value="&amp;lt;&amp;lt;include&amp;gt;&amp;gt;" style="text;html=1;align=center;verticalAlign=middle;whiteSpace=wrap;rounded=0;" parent="1" vertex="1">
          <mxGeometry x="1380" y="1220" width="60" height="30" as="geometry" />
        </mxCell>
        <mxCell id="HT50-Eg58FO8tAIzym4i-144" value="&amp;lt;&amp;lt;include&amp;gt;&amp;gt;" style="text;html=1;align=center;verticalAlign=middle;whiteSpace=wrap;rounded=0;" parent="1" vertex="1">
          <mxGeometry x="1370" y="1360" width="60" height="30" as="geometry" />
        </mxCell>
        <mxCell id="HT50-Eg58FO8tAIzym4i-145" value="&amp;lt;&amp;lt;include&amp;gt;&amp;gt;" style="text;html=1;align=center;verticalAlign=middle;whiteSpace=wrap;rounded=0;" parent="1" vertex="1">
          <mxGeometry x="1410" y="1490" width="60" height="30" as="geometry" />
        </mxCell>
        <mxCell id="HT50-Eg58FO8tAIzym4i-146" value="&amp;lt;&amp;lt;include&amp;gt;&amp;gt;" style="text;html=1;align=center;verticalAlign=middle;whiteSpace=wrap;rounded=0;" parent="1" vertex="1">
          <mxGeometry x="1430" y="1640" width="60" height="30" as="geometry" />
        </mxCell>
        <mxCell id="HT50-Eg58FO8tAIzym4i-147" value="&amp;lt;&amp;lt;include&amp;gt;&amp;gt;" style="text;html=1;align=center;verticalAlign=middle;whiteSpace=wrap;rounded=0;" parent="1" vertex="1">
          <mxGeometry x="1450" y="1860" width="60" height="30" as="geometry" />
        </mxCell>
        <mxCell id="HT50-Eg58FO8tAIzym4i-148" value="&amp;lt;&amp;lt;include&amp;gt;&amp;gt;" style="text;html=1;align=center;verticalAlign=middle;whiteSpace=wrap;rounded=0;" parent="1" vertex="1">
          <mxGeometry x="1470" y="2040" width="60" height="30" as="geometry" />
        </mxCell>
        <mxCell id="HT50-Eg58FO8tAIzym4i-149" value="&amp;lt;&amp;lt;extend&amp;gt;&amp;gt;" style="text;html=1;align=center;verticalAlign=middle;whiteSpace=wrap;rounded=0;rotation=-15;" parent="1" vertex="1">
          <mxGeometry x="810" y="1816" width="60" height="30" as="geometry" />
        </mxCell>
        <mxCell id="HT50-Eg58FO8tAIzym4i-150" value="&amp;lt;&amp;lt;extend&amp;gt;&amp;gt;" style="text;html=1;align=center;verticalAlign=middle;whiteSpace=wrap;rounded=0;rotation=-5;" parent="1" vertex="1">
          <mxGeometry x="827" y="1925" width="60" height="30" as="geometry" />
        </mxCell>
        <mxCell id="HT50-Eg58FO8tAIzym4i-151" value="&amp;lt;&amp;lt;extend&amp;gt;&amp;gt;" style="text;html=1;align=center;verticalAlign=middle;whiteSpace=wrap;rounded=0;rotation=-15;" parent="1" vertex="1">
          <mxGeometry x="740" y="991" width="60" height="30" as="geometry" />
        </mxCell>
        <mxCell id="HT50-Eg58FO8tAIzym4i-152" value="&amp;lt;&amp;lt;extend&amp;gt;&amp;gt;" style="text;html=1;align=center;verticalAlign=middle;whiteSpace=wrap;rounded=0;rotation=0;" parent="1" vertex="1">
          <mxGeometry x="880" y="1109" width="60" height="30" as="geometry" />
        </mxCell>
        <mxCell id="HT50-Eg58FO8tAIzym4i-153" value="&amp;lt;&amp;lt;extend&amp;gt;&amp;gt;" style="text;html=1;align=center;verticalAlign=middle;whiteSpace=wrap;rounded=0;rotation=15;" parent="1" vertex="1">
          <mxGeometry x="767" y="1189" width="60" height="30" as="geometry" />
        </mxCell>
      </root>
    </mxGraphModel>
  </diagram>
</mxfile>
